<?xml version="1.0" standalone="no"?>
<!DOCTYPE svg PUBLIC "-//W3C//DTD SVG 20010904//EN"
 "http://www.w3.org/TR/2001/REC-SVG-20010904/DTD/svg10.dtd">
<svg version="1.0" xmlns="http://www.w3.org/2000/svg"
 width="217.000000pt" height="217.000000pt" viewBox="0 0 217.000000 217.000000"
 preserveAspectRatio="xMidYMid meet">
<metadata>
Created by potrace 1.14, written by Peter Selinger 2001-2017
</metadata>
<g transform="translate(0.000000,217.000000) scale(0.100000,-0.100000)"
fill="#000000" stroke="none">
<path d="M1556 1845 c-14 -7 -23 -23 -26 -50 l-5 -40 -498 0 -498 0 -17 35
-17 35 -100 0 -100 0 -17 -34 -17 -35 -102 -2 c-95 -2 -103 -4 -128 -28 l-26
-26 -3 -656 -3 -655 30 -29 c18 -18 41 -30 58 -31 15 0 478 -1 1027 -1 l999
-1 29 32 29 32 -1 651 -2 651 -28 29 c-16 15 -39 29 -52 29 -13 1 -70 2 -128
3 l-105 1 -6 37 c-9 59 -20 63 -153 63 -66 0 -129 -5 -140 -10z m548 -154 c12
-10 16 -32 16 -97 l0 -84 -352 0 c-331 0 -351 -1 -328 -16 76 -51 165 -159
205 -249 104 -236 45 -533 -140 -704 -25 -23 -45 -42 -45 -44 0 -1 147 -2 328
-2 l327 0 3 -46 c2 -33 -2 -50 -14 -60 -14 -11 -181 -13 -1021 -13 -989 0
-1005 0 -1019 19 -9 12 -14 37 -12 60 l3 40 327 0 c179 0 324 3 321 8 -2 4
-26 28 -53 53 -60 56 -113 144 -148 243 -36 105 -38 271 -3 376 39 121 122
240 214 306 l40 29 -351 0 -352 0 0 84 c0 72 3 87 19 98 28 20 2011 19 2035
-1z"/>
<path d="M1791 1650 c-16 -10 -22 -50 -11 -70 10 -19 19 -20 123 -18 l112 3 3
43 c4 48 15 44 -126 46 -51 1 -97 -1 -101 -4z"/>
<path d="M327 1639 c-22 -13 -22 -42 0 -60 17 -14 20 -14 41 3 32 27 -4 77
-41 57z"/>
<path d="M989 1576 c-3 -3 -19 -7 -37 -11 -154 -27 -311 -147 -389 -298 -61
-118 -82 -284 -53 -412 18 -83 85 -205 145 -267 128 -131 272 -190 450 -184
141 4 252 47 358 136 302 253 275 728 -53 947 -83 56 -182 84 -306 89 -61 2
-113 2 -115 0z m229 -62 c233 -52 404 -271 404 -518 1 -188 -93 -368 -239
-459 -71 -45 -186 -78 -277 -81 -317 -10 -553 214 -557 528 -3 160 49 286 163
397 86 84 212 140 343 152 41 4 88 -2 163 -19z"/>
<path d="M1000 1453 c-46 -7 -135 -46 -185 -81 -90 -62 -169 -182 -190 -287
-28 -143 27 -324 129 -425 214 -213 599 -161 740 100 72 134 74 315 5 451 -29
57 -116 146 -179 183 -91 54 -215 76 -320 59z m235 -127 c68 -32 135 -94 169
-155 39 -72 48 -107 31 -121 -21 -17 -30 -7 -54 58 -31 86 -110 161 -203 191
-41 13 -53 25 -43 41 10 16 47 11 100 -14z"/>
</g>
</svg>
